<svg width="44" height="44" viewBox="0 0 44 44" fill="none" xmlns="http://www.w3.org/2000/svg">
<rect x="0.5" y="0.5" width="43" height="43" rx="9.5" stroke="#141414"/>
<g opacity="0.8">
<path d="M33.1278 17.4115C33.1142 16.4715 32.94 15.5388 32.6067 14.6596C32.0233 13.1583 30.8354 11.9711 29.3315 11.3899C28.462 11.0633 27.5428 10.8882 26.6123 10.8683C25.4157 10.815 25.0363 10.8 21.9987 10.8C18.9612 10.8 18.5718 10.8 17.3839 10.8683C16.4547 10.8882 15.5355 11.0633 14.666 11.3899C13.1621 11.9711 11.973 13.1583 11.3908 14.6596C11.0637 15.5277 10.8871 16.4454 10.8696 17.373C10.8162 18.5689 10.8 18.9477 10.8 21.9802C10.8 25.0127 10.8 25.4002 10.8696 26.5873C10.8883 27.5162 11.0637 28.4327 11.3908 29.3032C11.9742 30.8033 13.1621 31.9905 14.6672 32.5717C15.533 32.9095 16.4522 33.1007 17.3852 33.1305C18.583 33.1839 18.9624 33.2001 22 33.2001C25.0376 33.2001 25.4269 33.2001 26.6148 33.1305C27.544 33.1119 28.4632 32.9368 29.334 32.6102C30.8378 32.0278 32.0258 30.8406 32.6091 29.3405C32.9363 28.4712 33.1117 27.5547 33.1303 26.6246C33.1838 25.43 33.2 25.0512 33.2 22.0174C33.1975 18.9849 33.1975 18.5999 33.1278 17.4115ZM21.9913 27.7149C18.8144 27.7149 16.2408 25.1456 16.2408 21.974C16.2408 18.8024 18.8144 16.233 21.9913 16.233C25.1657 16.233 27.7418 18.8024 27.7418 21.974C27.7418 25.1456 25.1657 27.7149 21.9913 27.7149ZM27.9707 17.3594C27.2281 17.3594 26.6298 16.7608 26.6298 16.0207C26.6298 15.2805 27.2281 14.682 27.9707 14.682C28.7108 14.682 29.3103 15.2805 29.3103 16.0207C29.3103 16.7608 28.7108 17.3594 27.9707 17.3594Z" fill="#141414"/>
<path d="M21.9931 25.4789C23.928 25.4789 25.4966 23.9104 25.4966 21.9754C25.4966 20.0405 23.928 18.4719 21.9931 18.4719C20.0581 18.4719 18.4896 20.0405 18.4896 21.9754C18.4896 23.9104 20.0581 25.4789 21.9931 25.4789Z" fill="#141414"/>
</g>
</svg>
