<svg xmlns="http://www.w3.org/2000/svg" width="578" height="339" fill="none"><path fill="#141414" d="M19.622 169.06h68.409v52.99H19.622v-52.99Z"/><path fill="#A1C487" d="M7.83 169.061h62.577v52.989H7.831v-52.989Z"/><path fill="#141414" d="M7.66 222.259h63.002v-53.414H7.66v53.414Zm62.534-.424H8.044v-52.566h62.15v52.566Z"/><path fill="#141414" d="M29.285 169.061v13.216l3.916-2.16 3.023 2.033 3.618-2.033 3.32 2.16v-13.216H29.286ZM43.164 195.066h14.431v.848h-14.43v-.848ZM43.164 200.656h14.431v.848h-14.43v-.848ZM43.164 206.25h14.431v.848h-14.43v-.848Z"/><path fill="#FEFEFE" d="M15.579 193.922h23.37v14.529h-23.37v-14.529Z"/><path fill="#141414" d="M15.366 208.622h23.796v-14.953H15.366v14.953Zm23.37-.424H15.793v-14.105h22.944v14.105Z"/><path fill="#F27B79" d="M86.16 231.751H67.898c-.852 0-1.703.381-2.214 1.059l-9.237 11.564c-1.49 1.864-.17 4.575 2.213 4.575h27.5v-17.198Z"/><path fill="#141414" d="M58.66 249.156h27.713v-17.621H67.898c-.937 0-1.83.424-2.384 1.144l-9.238 11.564c-.723.932-.894 2.16-.34 3.219.468 1.017 1.532 1.694 2.724 1.694Zm27.287-.423H58.66c-1.021 0-1.915-.551-2.384-1.483-.425-.932-.34-1.991.298-2.753l9.238-11.564a2.564 2.564 0 0 1 2.043-.974h18.05v16.774h.042ZM272.229 159.066a2.8 2.8 0 0 1-2.809 2.796h-9.195a2.8 2.8 0 0 1-2.809-2.796 2.8 2.8 0 0 1 2.809-2.796h9.195c1.533-.042 2.809 1.229 2.809 2.796ZM237.535 162.365h11.323v15.969h-11.323v-15.969Z"/><path fill="#A1C487" d="M266.694 280.797V187.44c0-7.921-6.471-14.359-14.431-14.359h-41.718c-7.96 0-14.431 6.438-14.431 14.359v85.987c0 7.285-5.917 13.173-13.239 13.173h-11.706c-7.322 0-13.239-5.888-13.239-13.173v-37.572s.298-11.352 7.322-13.004H93.14s-29.968 24.314-36.269 63.495v4.32h209.823v-9.869Z"/><path fill="#141414" d="M56.659 290.881h210.248V187.443c0-8.048-6.556-14.571-14.644-14.571h-41.718c-8.088 0-14.643 6.523-14.643 14.571v85.986c0 7.159-5.832 12.962-13.026 12.962h-11.707c-7.194 0-13.026-5.803-13.026-12.962v-37.571c0-.127.341-11.182 7.194-12.792l1.788-.424H93.098l-.043.043c-.085.042-7.62 6.226-15.793 17.07-7.577 10.039-17.283 26.262-20.518 46.551l-.085 4.575Zm209.822-.424H57.084v-4.108c3.236-20.163 12.899-36.343 20.433-46.298 7.79-10.335 14.985-16.392 15.708-16.985h70.75c-5.917 2.584-6.215 12.326-6.258 12.792v37.571c0 7.371 6.045 13.385 13.452 13.385h11.707c7.407 0 13.451-6.014 13.451-13.385v-85.986c0-7.794 6.386-14.147 14.218-14.147h41.718c7.833 0 14.218 6.353 14.218 14.147v103.014Z"/><path fill="#141414" d="M238.259 173.039h5.108v93.865h-5.108v-93.865ZM0 220.565h97.398v4.829H0v-4.829ZM109.445 290.926h67.685v13.851h-67.685v-13.851Z"/><path fill="#141414" d="M85.054 332.056c-17.022 0-30.82-15.608-30.82-34.861 0-19.253 13.798-34.86 30.82-34.86 17.021 0 30.82 15.607 30.82 34.86s-13.799 34.861-30.82 34.861Z"/><path fill="#FEFEFE" d="M79.86 318.326c-11.074 0-20.05-10.165-20.05-22.704 0-12.538 8.976-22.703 20.05-22.703 11.073 0 20.05 10.165 20.05 22.703 0 12.539-8.977 22.704-20.05 22.704Z"/><path fill="#141414" d="M79.86 318.542c11.195 0 20.262-10.293 20.262-22.916 0-12.623-9.11-22.916-20.263-22.916-11.153 0-20.262 10.293-20.262 22.916 0 12.623 9.067 22.916 20.262 22.916Zm0-45.408c10.94 0 19.837 10.081 19.837 22.492 0 12.411-8.897 22.492-19.838 22.492-10.94 0-19.837-10.081-19.837-22.492 0-12.411 8.897-22.492 19.837-22.492Z"/><path fill="#141414" d="M90.46 295.75c0 5.041-2.384 9.531-10.004 9.531-4.47 0-6.13-4.49-6.13-9.531s1.703-9.15 6.13-9.15c7.62 0 10.004 4.067 10.004 9.15Z"/><path fill="#FEFEFE" d="M79.944 304.899c-4.467 0-8.088-4.096-8.088-9.149 0-5.054 3.621-9.15 8.088-9.15 4.467 0 8.088 4.096 8.088 9.15 0 5.053-3.62 9.149-8.088 9.149Z"/><path fill="#141414" d="M79.945 305.07c4.554 0 8.3-4.194 8.3-9.362 0-5.167-3.703-9.361-8.3-9.361-4.598 0-8.301 4.194-8.301 9.361 0 5.168 3.746 9.362 8.3 9.362Zm0-18.257c4.342 0 7.875 4.024 7.875 8.938 0 4.913-3.533 8.938-7.875 8.938-4.342 0-7.876-4.025-7.876-8.938 0-4.914 3.534-8.938 7.876-8.938ZM258.692 332.056c-17.021 0-30.82-15.608-30.82-34.861 0-19.253 13.799-34.86 30.82-34.86 17.022 0 30.82 15.607 30.82 34.86s-13.798 34.861-30.82 34.861Z"/><path fill="#FEFEFE" d="M253.498 318.326c-11.074 0-20.05-10.165-20.05-22.704 0-12.538 8.976-22.703 20.05-22.703 11.073 0 20.05 10.165 20.05 22.703 0 12.539-8.977 22.704-20.05 22.704Z"/><path fill="#141414" d="M253.498 318.542c11.196 0 20.263-10.293 20.263-22.916 0-12.623-9.11-22.916-20.263-22.916-11.153 0-20.263 10.293-20.263 22.916 0 12.623 9.067 22.916 20.263 22.916Zm0-45.408c10.94 0 19.837 10.081 19.837 22.492 0 12.411-8.897 22.492-19.837 22.492s-19.837-10.081-19.837-22.492c0-12.411 8.897-22.492 19.837-22.492Z"/><path fill="#141414" d="M264.098 295.75c0 5.041-2.384 9.149-10.004 9.149-4.469 0-6.13-4.108-6.13-9.149 0-5.041 1.703-9.15 6.13-9.15 7.62 0 10.004 4.067 10.004 9.15Z"/><path fill="#FEFEFE" d="M253.583 304.899c-4.467 0-8.088-4.096-8.088-9.149 0-5.054 3.621-9.15 8.088-9.15 4.467 0 8.088 4.096 8.088 9.15 0 5.053-3.621 9.149-8.088 9.149Z"/><path fill="#141414" d="M253.582 305.07c4.555 0 8.301-4.194 8.301-9.362 0-5.167-3.703-9.361-8.301-9.361-4.597 0-8.301 4.194-8.301 9.361 0 5.168 3.746 9.362 8.301 9.362Zm0-18.257c4.342 0 7.876 4.024 7.876 8.938 0 4.913-3.534 8.938-7.876 8.938-4.342 0-7.875-4.025-7.875-8.938 0-4.914 3.576-8.938 7.875-8.938ZM28.394 286.477h3.916c.511-4.024 3.96-7.116 8.13-7.116h87.012v16.35H40.441c-3.959 0-7.28-2.795-8.046-6.523h-4.001v-2.711Z"/><path fill="#A1C487" d="M43.847 290.666s-5.407-43.12 45.208-54.853c18.262-4.236 60.192-6.989 50.785 54.853H43.847Z"/><path fill="#141414" d="M43.633 290.881h96.333l.043-.169c3.49-23 .212-39.351-9.749-48.5-12.174-11.225-31.118-8.937-41.292-6.565-11.578 2.668-21.156 7.243-28.52 13.554-5.875 5.041-10.345 11.225-13.24 18.383-4.938 12.157-3.66 23.001-3.618 23.128l.042.169Zm95.992-.423h-95.61c-.127-1.483-.936-11.564 3.62-22.746 4.511-11.098 15.366-25.627 41.419-31.684 10.088-2.33 28.861-4.617 40.908 6.481 9.876 9.064 13.112 25.203 9.663 47.949ZM160.484 225.395h-63.47c-6.599 0-11.962-5.337-11.962-11.902 0-6.947 5.96-12.411 12.898-11.86l63.257 4.998c4.896.381 8.684 4.448 8.684 9.361 0 5.168-4.214 9.403-9.407 9.403Z"/><path fill="#A1C487" d="M225.53 285.885h72.538s-1.192-10.632-8.386-20.29c-15.751-20.967-48.486-18.086-60.065 5.38-2.086 4.151-3.533 9.064-4.087 14.91Z"/><path fill="#141414" d="M225.275 286.092h73.006l-.043-.254c0-.128-1.277-10.802-8.428-20.375-7.45-9.954-19.369-15.206-31.885-14.062-12.43 1.143-23.072 8.429-28.563 19.484-2.171 4.448-3.576 9.446-4.087 14.953v.254Zm72.537-.424h-72.026c.511-5.337 1.873-10.25 4.001-14.571 5.407-10.928 15.921-18.129 28.223-19.23 12.345-1.144 24.137 4.066 31.502 13.893 6.47 8.683 8.045 18.299 8.3 19.908Z"/><path fill="#141414" d="M43.336 293.463h186.58v-5.591h68.067v-5.083h-68.195c-2.767 0-4.981 2.245-4.981 4.956v.635H43.336v5.083ZM174.235 320.868h12.473v-5.083h-10.727l-24.009-18.214-3.065 4.024 25.328 19.273Z"/><path fill="#A1C487" d="M237.151 167.663h15.538c.936 0 1.873-.127 2.724-.339 4.938-1.229 8.599-5.676 8.599-10.971 0-3.134-1.277-5.93-3.32-7.963a11.275 11.275 0 0 0-5.279-2.965 11.772 11.772 0 0 0-2.767-.339h-2.256c-7.79 0-15.24 3.855-19.284 10.505-.212.339-.425.72-.638 1.101-2.597 4.998 1.021 10.971 6.683 10.971Z"/><path fill="#141414" d="M237.151 167.874h15.538c.936 0 1.873-.127 2.809-.339a11.49 11.49 0 0 0 8.77-11.183c0-3.092-1.192-5.972-3.406-8.132a11.742 11.742 0 0 0-5.364-3.05 12.717 12.717 0 0 0-2.809-.339h-2.256c-8.003 0-15.453 4.066-19.454 10.632-.213.381-.426.72-.639 1.101-1.277 2.372-1.234 5.21.17 7.54 1.448 2.372 3.917 3.77 6.641 3.77Zm15.538-22.577c.894 0 1.83.127 2.682.339 1.958.466 3.746 1.482 5.193 2.923a11.03 11.03 0 0 1 3.278 7.836 11.08 11.08 0 0 1-8.429 10.759c-.894.211-1.788.338-2.682.338h-15.537c-2.597 0-4.938-1.313-6.258-3.558-1.32-2.202-1.405-4.871-.17-7.116.213-.381.426-.72.638-1.101 3.917-6.438 11.239-10.42 19.071-10.42h2.214Z"/><path fill="#141414" d="M247.624 156.396c0 4.49 1.958 8.514 5.066 11.31h.042c6.258 0 11.366-5.041 11.366-11.31 0-3.134-1.277-5.93-3.32-7.963a11.362 11.362 0 0 0-8.003-3.304h-.043c-3.192 2.753-5.108 6.777-5.108 11.267Z"/><path fill="#FEFEFE" d="M250.73 156.392c0 4.321 1.788 8.176 4.682 10.971 4.938-1.228 8.599-5.676 8.599-10.971 0-3.134-1.277-5.93-3.32-7.963a11.267 11.267 0 0 0-5.279-2.966c-2.894 2.711-4.682 6.608-4.682 10.929Z"/><path fill="#141414" d="m255.373 167.579.128-.043a11.489 11.489 0 0 0 8.769-11.182c0-3.092-1.192-5.973-3.406-8.133a11.753 11.753 0 0 0-5.363-3.05l-.128-.042-.085.085c-3.065 2.922-4.768 6.862-4.768 11.097 0 4.236 1.703 8.175 4.768 11.098l.085.17Zm.128-21.899c1.915.508 3.661 1.482 5.065 2.88a11.03 11.03 0 0 1 3.278 7.836c0 5.083-3.405 9.446-8.343 10.717a14.792 14.792 0 0 1-4.555-10.717c0-4.109 1.617-7.878 4.555-10.716Z"/><path fill="#A1C487" d="M221.871 157.37h8.386v3.431h-8.386v-3.431Z"/><path fill="#141414" d="M221.699 161.055h8.812V157.2h-8.812v3.855Zm8.344-.424h-7.961v-3.007h7.961v3.007Z"/><path fill="#141414" d="M233.405 156.227h-3.363a2.8 2.8 0 0 0-2.81 2.796 2.8 2.8 0 0 0 2.81 2.795h3.363a2.799 2.799 0 0 0 2.809-2.795 2.8 2.8 0 0 0-2.809-2.796ZM223.486 159.066a2.8 2.8 0 0 1-2.809 2.796h-9.195a2.8 2.8 0 0 1-2.81-2.796 2.8 2.8 0 0 1 2.81-2.796h9.195c1.532-.042 2.809 1.229 2.809 2.796Z"/><path fill="#fff" d="M71.558 279.825h41.547v2.372H71.558v-2.372Z"/><path fill="#141414" d="M71.346 282.411h41.973v-2.796H71.345v2.796Zm41.547-.424H71.771v-1.948h41.122v1.948Z"/><path fill="#fff" d="M71.558 273.557h41.547v2.372H71.558v-2.372Z"/><path fill="#141414" d="M71.346 276.138h41.973v-2.795H71.345v2.795Zm41.547-.423H71.771v-1.949h41.122v1.949Z"/><path fill="#fff" d="M71.558 267.328h41.547v2.372H71.558v-2.372Z"/><path fill="#141414" d="M71.346 269.916h41.973v-2.796H71.345v2.796Zm41.547-.424H71.771v-1.948h41.122v1.948ZM134.815 320.825h87.267v.848h-87.267v-.848ZM304.799 338.345H578V339H304.799v-.655ZM367.04 338.254h33.286s-2.1-7.133-16.849-12.994l.046-1.635.137-8.86h-15.753l-.273 7.815-.594 15.674Z"/><path fill="#141414" d="M366.766 338.486H400.6l-.091-.272c-.091-.273-2.283-7.269-16.848-13.085l.137-10.541h-16.21l-.822 23.898Zm33.241-.454h-32.738l.822-23.035h15.296l-.137 10.405.137.045c12.785 5.134 16.026 11.222 16.62 12.585ZM323.664 338.254h33.286s-2.1-7.133-16.849-12.994l.138-1.091 1.278-9.404h-15.753l-.73 8.178-1.37 15.311Z"/><path fill="#141414" d="M323.39 338.485h33.88l-.092-.273c-.091-.273-2.282-7.269-16.848-13.085l1.415-10.586h-16.209l-2.146 23.944Zm33.241-.455h-32.739l2.055-23.035h15.296l-1.415 10.405.182.045c12.831 5.134 16.027 11.222 16.621 12.585ZM520.276 338.254h33.286l-2.145-16.583-.868-6.906h-15.753l1.872 8.496.457 3.816c-15.479 4.725-16.849 11.177-16.849 11.177Z"/><path fill="#141414" d="M520.003 338.485h33.834l-3.06-23.944h-16.254l1.963 8.769.411 3.589c-15.251 4.68-16.803 11.04-16.849 11.313l-.045.273Zm33.331-.455h-32.738c.502-1.272 3.288-6.679 16.62-10.722l.183-.046-.457-3.998-1.826-8.223h15.251l2.967 22.989ZM481.922 338.254h33.286l-.822-16.311-.365-7.178h-15.753l.411 8.723.091 3.089c-14.748 5.907-16.848 11.677-16.848 11.677Z"/><path fill="#141414" d="M481.602 338.485h33.879l-1.233-23.944h-16.209l.457 8.996.091 2.953c-14.565 5.816-16.757 11.495-16.848 11.722l-.137.273Zm33.377-.455h-32.693c.685-1.272 4.064-6.224 16.575-11.222l.137-.045-.091-3.272-.411-8.496h15.296l1.187 23.035Z"/><path fill="#FFAC71" d="m393.204 12.768-23.15-5.18-2.511 8.77c-.639-.455-1.278-.728-1.872-.728-2.74 0-3.287 3.272-3.287 3.272-.777 3.543 1.552 5.724 2.602 7.269l-7.945 25.306 19.68 3.045 1.689-16.175c16.94 8.496 14.794-25.579 14.794-25.579Z"/><path fill="#141414" d="m376.95 54.703 1.689-16.084c3.333 1.59 6.21 1.681 8.493.182 7.579-4.998 6.392-25.216 6.346-26.08v-.18l-23.56-5.271-2.466 8.632c-.593-.409-1.187-.59-1.735-.59-2.876 0-3.516 3.407-3.516 3.453-.685 3.089.913 5.133 2.055 6.633.183.227.365.454.502.681l-7.99 25.443 20.182 3.18Zm1.278-16.766-1.689 16.266-19.178-2.999 7.9-25.125-.046-.09c-.183-.228-.365-.5-.594-.773-1.095-1.454-2.602-3.408-1.963-6.27.045-.136.548-3.09 3.059-3.09.548 0 1.142.228 1.735.682l.274.182 2.557-8.86 22.785 5.089c.091 2 .867 20.9-6.165 25.488-2.191 1.454-5.022 1.318-8.31-.318l-.365-.181Z"/><path fill="#141414" d="M400.144 2.865c-1.05-.227-3.698 0-5.296 1.318l.274-.545c2.374-7.088-7.626-1.818-12.922-.773-1.096.227-3.516.545-3.516.545-15.844-3.589-14.246 12.495-14.246 12.495 4.155-.59 5.388 5.043 5.388 5.043 4.246-1.999 5.571-4.861 5.707-6.088 4.11 1.863 14.657 5.407 23.379-.863 5.981-4.317 3.881-10.632 1.232-11.132ZM492.104 70.246s6.438-11.95 6.986-17.901l-2.694-13.085s-.32-12.54 16.255-9.496c0 0-.091-5.906 3.836-7.314 0 0-1.918 3.316-1.233 6.587 0 0 3.196-7.269 9.223-3.453 0 0 4.658 2.545 3.425 7.179 0 0 .091 5.27-7.169 5.361 0 0 .091 6.588 16.118 15.538 0 0 13.333 6.361 12.237 20.218-1.096 13.858-13.515 22.58-13.515 22.58l-45.661.046 2.192-26.26Z"/><path fill="#FFAC71" d="m517.446 75.333-1.964-22.853s3.425-2 2.557-5.907c0 0-.822-3.135-3.972-.727l-.091-5.542s-11.05 4.134-17.488-2.09c0 0-4.658 21.626 5.159 21.58l-2.1 18.174 17.899-2.635Z"/><path fill="#141414" d="m499.319 78.24 18.401-2.68-1.964-22.944c.639-.409 3.333-2.453 2.557-6.088 0-.045-.365-1.363-1.461-1.726-.731-.227-1.552-.046-2.511.59l-.092-5.406-.319.09c-.091.046-10.959 3.999-17.26-2.044l-.274-.272-.091.408c-.137.591-3.105 14.675 1.187 19.9 1.005 1.227 2.329 1.863 3.927 1.909l-2.1 18.264Zm17.898-3.089-17.351 2.545 2.101-18.128h-.274c-1.598 0-2.877-.591-3.836-1.772-3.744-4.59-1.598-16.765-1.141-19.128 5.89 5.27 15.296 2.544 17.122 1.954l.092 5.679.365-.273c.959-.727 1.781-1 2.42-.772.868.273 1.187 1.408 1.187 1.408.822 3.726-2.329 5.589-2.465 5.68l-.137.09v.137l1.917 22.58ZM367.589 322.625l15.889.999.137-8.86h-15.752l-.274 7.861ZM325.033 322.943l15.205 1.226 1.279-9.405h-15.753l-.731 8.179Z"/><path fill="#CDCBCC" d="m347.727 131.941.639 3.453 3.881 21.308 10.046 54.793.593 18.083 3.059 90.594h26.575l2.968-108.132-4.201-60.29-1.416-19.809h-42.144Z"/><path fill="#141414" d="M365.716 320.402h27.031v-.227l2.968-108.132-5.616-80.326h-42.647l14.612 79.826 3.652 108.859Zm26.575-.454h-26.164l-3.652-108.45-14.52-79.327h41.642l5.662 79.918-2.968 107.859ZM534.796 314.764l1.918 8.497 14.748-1.591-.913-6.906h-15.753ZM498.268 314.764l.411 8.769 15.707-1.59-.366-7.179h-15.752Z"/><path fill="#CDCBCC" d="M320.696 320.629h26.849l15.341-91.049 3.425-20.4 5.844-52.612 2.329-21.172h-43.605l.182 16.719.639 55.157-11.004 113.357Z"/><path fill="#141414" d="M320.468 320.853h27.305l.045-.182 18.767-111.449 8.219-74.056h-44.108l.822 72.103-11.05 113.584Zm26.894-.455H320.97l10.959-113.084-.822-71.694h43.149l-8.174 73.512-18.72 111.266ZM485.574 198.183l7.032 121.989h24.291l-.822-77.328-.502-44.116 3.516-40.89 1.37-16.311-20.365-.318-11.506-.227-.959 18.309-2.055 38.892Z"/><path fill="#141414" d="M492.423 320.402h24.703v-.227l-1.325-121.444 4.932-57.428-32.328-.545-3.059 57.428 7.077 122.216Zm24.246-.454h-23.835l-7.031-121.762 3.013-56.974 31.414.545-4.885 56.974 1.324 121.217ZM330.878 135.397l.183 16.72c7.58 2.499 14.703 3.953 21.186 4.589 7.443.772 14.155.545 19.908-.182 8.63-1.045 15.205-3.226 19.086-4.816l-1.37-19.809h-42.144l.639 3.453h-17.488v.045Z"/><path fill="#141414" d="m499.82 139.303.274 1.908 2.602 18.855 6.895 49.705 6.484 33.075 14.976 76.601 22.237.455-10.228-112.539-2.831-58.792-.502-10.358-39.907 1.09Z"/><path fill="#141414" d="M553.563 320.129v-.273l-10.228-112.539-3.379-69.377-40.364 1.09 9.772 70.786 21.506 109.858 22.693.455Zm-14.064-181.69 3.333 68.923 10.228 112.267-21.825-.455-21.415-109.495-9.725-70.195 39.404-1.045Z"/><path fill="#CDCBCC" d="M490.506 73.513 472.79 96.456l-24.748 4.816v17.72l28.994-2.727c2.009-.181 3.882-.908 5.525-2.044l11.598-8.178-3.653-32.53Z"/><path fill="#141414" d="m447.814 119.265 29.268-2.772a11.765 11.765 0 0 0 5.662-2.09l11.735-8.268-3.745-33.212-18.035 23.307-24.839 4.861v18.174h-.046Zm46.162-13.312-11.506 8.132a11.12 11.12 0 0 1-5.434 1.999l-28.766 2.727V101.5l24.657-4.816.046-.045 17.396-22.49 3.607 31.804Z"/><path fill="#A1C487" d="M377.862 48.71s-3.425 8.041-18.812-7.815l-26.392 9.677a12.094 12.094 0 0 0-7.077 9.041l-4.155 23.353h14.428l-6.666 62.426s19.451 5.134 34.337 5.452c24.565.545 29.998-3.816 29.998-3.816l-1.096-22.172-.182-50.431c.274-7.179-2.74-12.585-7.032-18.4l-7.351-7.316Z"/><path fill="#141414" d="M367.634 151.117c20.867 0 25.798-3.771 25.981-3.907l.091-.091-1.096-22.308-.182-50.431c.274-7.042-2.648-12.54-7.077-18.537l-7.58-7.542-.137.318c-.046.045-.685 1.454-2.603 1.817-2.511.455-7.26-.863-15.844-9.723l-.091-.09-.137.045-26.392 9.677c-3.835 1.681-6.529 5.134-7.214 9.223l-4.201 23.626h14.429l-6.666 62.38.182.046c.183.045 19.634 5.134 34.382 5.497h4.155Zm25.616-4.225c-.822.545-7.26 4.225-29.771 3.725-13.88-.318-32.007-4.907-34.062-5.406l6.666-62.517H321.7l4.11-23.08c.685-3.953 3.242-7.27 6.94-8.86l26.255-9.586c8.675 8.905 13.606 10.222 16.163 9.723 1.644-.319 2.466-1.318 2.786-1.818l7.123 7.042c4.474 6.088 7.214 11.313 6.94 18.265l.183 50.431 1.05 22.081ZM393.615 72.152h72.828v56.428h-72.828V72.152Z"/><path fill="#FEFEFE" d="M381.058 72.152h66.618v56.428h-66.618V72.152Z"/><path fill="#141414" d="M380.83 128.804h67.075V71.922H380.83v56.882Zm66.618-.454h-66.161V72.376h66.161v55.974Z"/><path fill="#141414" d="M403.888 72.152v14.085l4.155-2.272 3.197 2.136 3.835-2.136 3.561 2.272V72.152h-14.748ZM418.59 99.866h15.388v.909H418.59v-.909ZM418.59 105.819h15.388v.909H418.59v-.909ZM418.59 111.768h15.388v.909H418.59v-.909Z"/><path fill="#FEFEFE" d="M389.277 98.64h24.884v15.448h-24.884V98.64Z"/><path fill="#141414" d="M389.049 114.313h25.342V98.411h-25.342v15.902Zm24.885-.454h-24.428V98.865h24.428v14.994ZM487.63 159.295c3.835.545 9.086.999 15.067.772 5.023-.182 10.593-.818 16.347-2.226 6.986-1.727 14.246-4.635 21.14-9.269l-.502-10.359-39.861 1.09.274 1.908-11.507-.181-.958 18.265Z"/><path fill="#E78D4C" d="M447.813 130.443c.411.681.959 1.226 1.598 1.681.639.454 1.37.772 2.146.908l3.607.818c2.329.5 4.703.773 7.077.773h3.151c.913 0 1.826-.227 2.603-.682l3.379-1.863 3.561-.409 13.242-1.59v-10.132l-11.142 1.727-5.159.817-11.187-3.089s-1.963 4.044 4.155 6.088l-5.936 2.908h-9.954c-1.05-.091-1.735 1.136-1.141 2.045Z"/><path fill="#141414" d="M462.287 134.808h3.151c.959 0 1.918-.227 2.739-.727l3.334-1.817 16.939-2.045v-10.586l-16.528 2.589-11.324-3.135-.091.182c-.046.046-.731 1.5 0 3.135.548 1.318 1.826 2.363 3.789 3.09l-5.388 2.635H449c-.593 0-1.141.318-1.415.818-.274.5-.274 1.136.045 1.636.457.681 1.005 1.272 1.644 1.726a6.7 6.7 0 0 0 2.192.954l3.607.818c2.42.5 4.794.727 7.214.727Zm25.707-4.952-16.666 1.999-3.379 1.863a5.419 5.419 0 0 1-2.511.636h-3.151c-2.374 0-4.748-.273-7.031-.773l-3.607-.818c-.731-.181-1.416-.454-2.055-.908a5.74 5.74 0 0 1-1.553-1.59 1.212 1.212 0 0 1-.045-1.182c.182-.363.593-.59 1.004-.59h10l6.483-3.181-.548-.182c-2.1-.681-3.47-1.726-4.018-2.998-.502-1.136-.228-2.181-.045-2.59l11.05 3.044 16.072-2.499v9.769ZM403.067 37.439h45.158v34.984h-45.158V37.439Z"/><path fill="#A1C487" d="M395.305 37.439h41.277v34.984h-41.277V37.439Z"/><path fill="#141414" d="M395.076 72.653h41.733V37.215h-41.733v35.438Zm41.277-.454h-40.821v-34.53h40.821V72.2Z"/><path fill="#141414" d="M409.414 37.439v8.723l2.603-1.408 2.009 1.318 2.374-1.318 2.192 1.408V37.44h-9.178ZM418.545 54.436h9.543v.91h-9.543v-.91ZM418.545 58.11h9.543v.909h-9.543v-.91ZM418.545 61.838h9.543v.91h-9.543v-.91Z"/><path fill="#FEFEFE" d="M400.374 53.842h15.433v9.587h-15.433v-9.587Z"/><path fill="#141414" d="M400.144 63.653h15.89v-10.04h-15.89v10.04Zm15.433-.454H400.6v-9.133h14.977V63.2ZM474.981 131.625l13.242-1.59v-10.132l-11.141 1.726-2.101 9.996Z"/><path fill="#CDCBCC" d="m478.999 120.63 8.356-1.591 1.37-40.799a9.197 9.197 0 0 1 3.287-6.724l8.539-7.088s1.643 10.404 17.579 0l14.748 5.27c4.155 1.5 7.305 4.998 8.31 9.269l9.315 45.025c.867 4.18-2.238 8.132-6.53 8.269l-4.429.136 2.146 14.357s-15.204 6.497-30.82 7.451c-17.99 1.136-23.88-3.135-23.652-3.726l.913-15.265-9.132.363V120.63Z"/><path fill="#141414" d="M505.026 154.703c1.78 0 3.744-.045 5.844-.181 15.479-.955 30.729-7.406 30.912-7.497l.183-.091-.046-.182-2.1-14.084 4.2-.136c2.101-.091 4.064-1.045 5.388-2.726a6.855 6.855 0 0 0 1.37-5.816l-9.315-45.024c-1.05-4.408-4.2-7.906-8.492-9.45L518.13 64.2l-.091.045c-6.164 4.044-11.05 5.452-14.155 4.089-2.603-1.136-3.059-3.907-3.059-3.907l-.046-.41-8.812 7.361a9.433 9.433 0 0 0-3.379 6.906l-1.37 40.618-8.356 1.59v15.447l9.132-.363-.913 14.993c-.046.136 0 .227.091.363.548.864 5.343 3.771 17.854 3.771Zm36.391-8.041c-1.69.681-16.027 6.451-30.593 7.36-17.214 1.09-23.104-2.817-23.378-3.453v-.046l.914-15.538-9.178.364v-14.585l8.356-1.59 1.369-40.98c.092-2.545 1.279-4.908 3.197-6.543l8.218-6.86c.229.862 1.005 2.907 3.242 3.861 3.288 1.454 8.128.09 14.52-4.043l14.657 5.224a12.73 12.73 0 0 1 8.174 9.133l9.314 45.024c.411 1.908-.091 3.907-1.278 5.452a6.801 6.801 0 0 1-5.023 2.545l-4.703.136 2.192 14.539Z"/><path fill="#141414" d="m539.506 132.14.026.455-51.787 2.958-.026-.455 51.787-2.958ZM487.173 119.264l39.404-8.087-3.561-19.537-.457.091 3.516 19.082-38.994 8.042.092.409Z"/><path fill="#FFAC71" d="M319.28 111.679c-.411 4.588 2.465 8.859 6.894 10.222l46.665 14.448 4.429 1.545a11.65 11.65 0 0 0 5.297.545l8.949-1.09a9.735 9.735 0 0 0 1.644-.409l10.456-3.817c1.324-.5 2.511-1.408 3.288-2.589l.136-.228c.548-.817-.045-1.908-1.05-1.908h-16.803c4.886-3.089 4.521-5.815 4.521-5.815l-10.319 1.408-7.534.909-35.57-17.265 4.11-20.4.822-4.134h-23.652l-.229 2.408-2.054 26.17Z"/><path fill="#141414" d="M381.15 138.756c.502 0 1.004-.045 1.461-.091l8.949-1.09a9.269 9.269 0 0 0 1.69-.409l10.456-3.817c1.416-.499 2.557-1.408 3.379-2.68l.137-.227a1.378 1.378 0 0 0 .045-1.5c-.274-.499-.73-.772-1.324-.772h-16.026c4.292-2.953 4.018-5.498 3.972-5.634l-.046-.227-10.547 1.408-7.488.864-35.341-17.129 4.977-24.67h-24.109l-2.466 28.85c-.411 4.725 2.512 9.041 7.078 10.45l46.664 14.448 4.429 1.544c1.416.455 2.786.682 4.11.682Zm24.93-10.132c.366 0 .731.182.913.545a.965.965 0 0 1-.045 1.045l-.137.228a6.799 6.799 0 0 1-3.151 2.498l-10.456 3.817a9.127 9.127 0 0 1-1.598.409l-8.949 1.09a11.251 11.251 0 0 1-5.206-.545l-4.429-1.545-46.664-14.448c-4.338-1.363-7.123-5.452-6.758-9.995l2.42-28.442h23.15l-4.932 24.444.137.091 35.615 17.264 7.626-.908 10.045-1.363c-.046.681-.548 2.907-4.429 5.361l-.639.409h17.487v.045Z"/><path fill="#141414" d="m347.397 73.254.444.106-2.524 10.472-.444-.106 2.524-10.472Z"/><path fill="#141414" d="m321.518 85.42 22.967 1.771.868-4.18h-23.652l-.183 2.408ZM444.543 204.795a9.14 9.14 0 0 0-6.462 2.662 9.081 9.081 0 0 0-2.679 6.431 9.076 9.076 0 0 0-2.677-6.432 9.16 9.16 0 0 0-6.462-2.664 9.16 9.16 0 0 0 6.462-2.664 9.074 9.074 0 0 0 2.677-6.432c0 2.413.963 4.726 2.676 6.432a9.161 9.161 0 0 0 6.462 2.664l.003.003Z"/><path fill="#A1C487" d="M468.752 262.273a3.719 3.719 0 0 0 3.728-3.71 3.72 3.72 0 0 0-3.728-3.711 3.72 3.72 0 0 0-3.728 3.711 3.719 3.719 0 0 0 3.728 3.71ZM315.776 219.997a3.72 3.72 0 0 0 3.728-3.711 3.72 3.72 0 0 0-3.728-3.711 3.72 3.72 0 0 0-3.728 3.711 3.72 3.72 0 0 0 3.728 3.711ZM443.157 159.485c2.631 0 4.763-2.122 4.763-4.741 0-2.618-2.132-4.741-4.763-4.741s-4.764 2.123-4.764 4.741c0 2.619 2.133 4.741 4.764 4.741Z"/><path fill="#141414" d="M182.197 258.327a7.51 7.51 0 0 0-5.298 2.185 7.443 7.443 0 0 0-2.195 5.274 7.439 7.439 0 0 0-2.195-5.274 7.51 7.51 0 0 0-5.298-2.185 7.508 7.508 0 0 0 5.298-2.184 7.439 7.439 0 0 0 2.195-5.274c0 1.978.79 3.875 2.195 5.274a7.508 7.508 0 0 0 5.298 2.184Z"/><path fill="#A1C487" d="M226.014 253.433a2.48 2.48 0 0 0 2.486-2.475 2.48 2.48 0 0 0-2.486-2.475 2.481 2.481 0 0 0-2.487 2.475 2.481 2.481 0 0 0 2.487 2.475Z"/><path fill="#141414" d="M296.389 128.928a9.163 9.163 0 0 0-6.463 2.662 9.097 9.097 0 0 0-1.982 2.95 9.043 9.043 0 0 0-.697 3.481 9.074 9.074 0 0 0-2.677-6.432 9.157 9.157 0 0 0-6.461-2.664 9.161 9.161 0 0 0 6.461-2.664 9.076 9.076 0 0 0 2.677-6.432c0 2.412.963 4.726 2.677 6.432a9.162 9.162 0 0 0 6.462 2.664l.003.003Z"/><path fill="#fff" stroke="#141414" d="M283.737 71.454h.015a8.86 8.86 0 0 1 6.417 2.47 8.772 8.772 0 0 1 2.681 6.301 8.772 8.772 0 0 1-2.681 6.302 8.833 8.833 0 0 1-6.417 2.47h-37.999a6.922 6.922 0 0 1-3.162-.743 6.884 6.884 0 0 1-2.469-2.1 6.838 6.838 0 0 1 .792-8.943 6.926 6.926 0 0 1 9.011-.504l.978.751-.179-1.22a14.89 14.89 0 0 1 2.756-10.998 15.03 15.03 0 0 1 9.721-5.912 15.078 15.078 0 0 1 11.095 2.579 14.938 14.938 0 0 1 6.083 9.584l.1.565.546-.176a8.845 8.845 0 0 1 2.712-.426Z"/><path fill="#A1C487" d="M292.153 338.051a2.48 2.48 0 0 0 2.486-2.475 2.48 2.48 0 0 0-2.486-2.474 2.48 2.48 0 0 0-2.487 2.474 2.48 2.48 0 0 0 2.487 2.475Z"/></svg>